<svg width="50" height="50" viewBox="0 0 50 50" fill="none" xmlns="http://www.w3.org/2000/svg">
<rect width="50" height="50" rx="25" fill="#251802"/>
<path d="M25 6C26.9927 6.03263 28.9701 6.37485 30.844 7.01556C38.4194 9.51036 43.808 17.1415 43.625 25C43.7719 34.9191 34.8456 43.7356 25 43.5C15.1544 43.7355 6.2281 34.9191 6.375 25C6.19203 17.1415 11.5806 9.51036 19.156 7.01556C21.0299 6.37485 23.0073 6.03263 25 6C23.0074 5.96593 21.0089 6.24496 19.0973 6.83484C11.372 9.11065 5.57088 16.8129 5.625 25C5.625 25 5.625 25 5.625 25C5.27974 35.322 14.6045 44.7566 25 44.5C35.3955 44.7566 44.7203 35.322 44.375 25C44.375 25 44.375 25 44.375 25C44.4291 16.8129 38.628 9.11065 30.9027 6.83485C28.9911 6.24496 26.9926 5.96593 25 6ZM25 6" fill="#FAEEE1"/>
<path d="M25 2C27.4122 2.03248 29.8082 2.44009 32.0805 3.21034C41.2664 6.2073 47.8329 15.4525 47.625 25C47.8237 37.0498 36.9763 47.7874 25 47.5C13.0237 47.7874 2.1763 37.0498 2.375 25C2.16708 15.4525 8.73354 6.20731 17.9195 3.21034C20.1918 2.44009 22.5878 2.03248 25 2C22.5879 1.96578 20.1708 2.31021 17.8608 3.02962C8.52492 5.8076 1.54592 15.1239 1.625 25C1.625 25 1.625 25 1.625 25C1.22793 37.4527 12.4738 48.8084 25 48.5C25 48.5 25 48.5 25 48.5C25 48.5 25 48.5 25 48.5C37.5262 48.8084 48.7721 37.4527 48.375 25C48.375 25 48.375 25 48.375 25C48.4541 15.1239 41.4751 5.80759 32.1392 3.02962C29.8292 2.31021 27.4121 1.96578 25 2ZM25 2" fill="#FAEEE1"/>
<rect x="10" y="10" width="30" height="30" rx="15" fill="#D97706"/>
<path d="M20.175 32.825C19.3917 32.0417 19 31.1 19 30C19 28.9 19.3917 27.9583 20.175 27.175C20.9583 26.3917 21.9 26 23 26C23.3833 26 23.7375 26.0458 24.0625 26.1375C24.3875 26.2292 24.7 26.3667 25 26.55V16H31V20H27V30C27 31.1 26.6083 32.0417 25.825 32.825C25.0417 33.6083 24.1 34 23 34C21.9 34 20.9583 33.6083 20.175 32.825Z" fill="#FAEEE1"/>
</svg>
